<svg width="45" height="48" viewBox="0 0 45 48" fill="none" xmlns="http://www.w3.org/2000/svg">
<path fill-rule="evenodd" clip-rule="evenodd" d="M13.2239 0.144C15.6232 0.0261818 16.3882 0 22.5 0C28.6118 0 29.3768 0.0283636 31.7741 0.144C34.1714 0.259636 35.8077 0.667636 37.2395 1.25891C38.7389 1.86327 40.0991 2.808 41.2241 4.02982C42.3695 5.22764 43.2532 6.67636 43.8177 8.27782C44.3741 9.80509 44.7545 11.5505 44.865 14.1033C44.9755 16.6669 45 17.4829 45 24C45 30.5193 44.9734 31.3353 44.865 33.8945C44.7566 36.4473 44.3741 38.1927 43.8177 39.72C43.2532 41.3217 42.3681 42.7728 41.2241 43.9724C40.0991 45.1942 38.7389 46.1367 37.2395 46.7389C35.8077 47.3324 34.1714 47.7382 31.7782 47.856C29.3768 47.9738 28.6118 48 22.5 48C16.3882 48 15.6232 47.9716 13.2239 47.856C10.8307 47.7404 9.19432 47.3324 7.7625 46.7389C6.26097 46.1367 4.90054 45.1926 3.77591 43.9724C2.63123 42.7738 1.74542 41.3234 1.18023 39.7222C0.625909 38.1949 0.245455 36.4495 0.135 33.8967C0.0245454 31.3331 0 30.5171 0 24C0 17.4807 0.0265909 16.6647 0.135 14.1076C0.243409 11.5505 0.625909 9.80509 1.18023 8.27782C1.74625 6.67654 2.63274 5.22614 3.77795 4.02764C4.90099 2.80691 6.26006 1.86206 7.76045 1.25891C9.19227 0.667636 10.8286 0.261818 13.2218 0.144H13.2239ZM31.592 4.464C29.2193 4.34836 28.5075 4.32436 22.5 4.32436C16.4925 4.32436 15.7807 4.34836 13.408 4.464C11.2132 4.57091 10.0227 4.96145 9.22909 5.29091C8.17977 5.72727 7.42909 6.24436 6.64159 7.08436C5.89509 7.85902 5.3206 8.80207 4.96023 9.84436C4.65136 10.6909 4.28523 11.9607 4.185 14.3018C4.07659 16.8327 4.05409 17.592 4.05409 24C4.05409 30.408 4.07659 31.1673 4.185 33.6982C4.28523 36.0393 4.65136 37.3091 4.96023 38.1556C5.32023 39.1964 5.895 40.1411 6.64159 40.9156C7.36773 41.712 8.25341 42.3251 9.22909 42.7091C10.0227 43.0385 11.2132 43.4291 13.408 43.536C15.7807 43.6516 16.4905 43.6756 22.5 43.6756C28.5095 43.6756 29.2193 43.6516 31.592 43.536C33.7868 43.4291 34.9773 43.0385 35.7709 42.7091C36.8202 42.2727 37.5709 41.7556 38.3584 40.9156C39.105 40.1411 39.6798 39.1964 40.0398 38.1556C40.3486 37.3091 40.7148 36.0393 40.815 33.6982C40.9234 31.1673 40.9459 30.408 40.9459 24C40.9459 17.592 40.9234 16.8327 40.815 14.3018C40.7148 11.9607 40.3486 10.6909 40.0398 9.84436C39.6307 8.72509 39.1459 7.92436 38.3584 7.08436C37.6321 6.28816 36.748 5.67537 35.7709 5.29091C34.9773 4.96145 33.7868 4.57091 31.592 4.464ZM19.6261 31.3985C21.2311 32.1112 23.0183 32.2074 24.6824 31.6707C26.3464 31.134 27.7842 29.9976 28.7501 28.4558C29.716 26.914 30.1501 25.0623 29.9783 23.217C29.8064 21.3716 29.0393 19.6472 27.808 18.3382C27.023 17.5014 26.0738 16.8607 25.0289 16.4621C23.9839 16.0636 22.8691 15.9172 21.7647 16.0333C20.6602 16.1495 19.5937 16.5255 18.6419 17.1341C17.69 17.7427 16.8765 18.5689 16.2599 19.5531C15.6434 20.5374 15.239 21.6552 15.0761 22.8261C14.9131 23.997 14.9955 25.1919 15.3175 26.3248C15.6394 27.4576 16.1928 28.5002 16.9378 29.3776C17.6829 30.2549 18.601 30.9451 19.6261 31.3985ZM14.3223 15.2771C15.3962 14.1316 16.6711 13.2229 18.0742 12.603C19.4774 11.983 20.9813 11.6639 22.5 11.6639C24.0187 11.6639 25.5226 11.983 26.9258 12.603C28.3289 13.2229 29.6038 14.1316 30.6777 15.2771C31.7516 16.4226 32.6035 17.7825 33.1847 19.2792C33.7659 20.7759 34.0651 22.38 34.0651 24C34.0651 25.62 33.7659 27.2241 33.1847 28.7208C32.6035 30.2175 31.7516 31.5774 30.6777 32.7229C28.5089 35.0364 25.5672 36.3361 22.5 36.3361C19.4328 36.3361 16.4911 35.0364 14.3223 32.7229C12.1534 30.4095 10.9349 27.2717 10.9349 24C10.9349 20.7283 12.1534 17.5906 14.3223 15.2771ZM36.63 13.5011C36.8961 13.2333 37.1092 12.9113 37.2565 12.5541C37.4039 12.1969 37.4826 11.8119 37.4879 11.4217C37.4932 11.0315 37.4251 10.6441 37.2876 10.2825C37.15 9.92089 36.9459 9.59239 36.6872 9.31645C36.4285 9.04051 36.1205 8.82274 35.7815 8.67604C35.4425 8.52933 35.0794 8.45667 34.7136 8.46236C34.3477 8.46805 33.9867 8.55197 33.6519 8.70916C33.317 8.86634 33.0151 9.09359 32.7641 9.37745C32.2759 9.92952 32.0086 10.6628 32.0189 11.4217C32.0293 12.1805 32.3165 12.9052 32.8196 13.4418C33.3227 13.9785 34.0021 14.2849 34.7136 14.2959C35.425 14.307 36.1124 14.0219 36.63 13.5011Z" fill="black"/>
</svg>
