<svg width="111" height="104" viewBox="0 0 111 104" fill="none" xmlns="http://www.w3.org/2000/svg">
<path fill-rule="evenodd" clip-rule="evenodd" d="M72.6726 3.13953C72.6331 5.94279 72.4751 6.01814 71.1909 3.83721C68.38 -0.934884 60.8475 2.57721 62.3066 7.98C63.0982 10.906 63.3649 10.9647 67.1538 9.02651C72.1985 6.44791 82.6943 6.38512 88.6351 8.89814C91.1328 9.95442 94.8821 12.6237 96.9663 14.8284C109.184 27.7479 104.644 48.3349 87.9705 55.6298C83.1769 57.727 82.9229 58.1191 84.7715 60.5833C86.4719 62.8507 87.3214 63.0153 90.3299 61.6605C92.5171 60.674 93.8816 58.9102 93.8816 57.0684C93.8816 54.5205 94.2076 54.3446 96.0759 55.8767C97.9075 57.3809 98.7598 57.1912 101.25 54.7284C103.741 52.2656 103.933 51.4228 102.412 49.6116C100.848 47.7474 101.09 47.4419 104.128 47.4419C106.601 47.4419 107.919 46.4986 108.515 44.3023C109.765 39.6851 109.621 39.0698 107.287 39.0698C106.123 39.0698 105.171 38.4419 105.171 37.6744C105.171 36.907 106.441 36.2791 107.993 36.2791C110.188 36.2791 110.815 35.3484 110.815 32.093C110.815 28.8377 110.188 27.907 107.993 27.907C106.441 27.907 105.171 27.2791 105.171 26.5116C105.171 25.7442 106.196 25.1163 107.452 25.1163C109.129 25.1163 109.508 24.2847 108.882 21.9767C108.415 20.2493 108.022 18.367 108.012 17.7907C108.001 17.2144 106.328 16.7442 104.293 16.7442C101.105 16.7442 100.844 16.4428 102.412 14.5744C103.933 12.7633 103.741 11.9205 101.25 9.45767C98.7598 6.99488 97.9075 6.80512 96.0759 8.3093C94.2076 9.8414 93.8816 9.66558 93.8816 7.11767C93.8816 5.27581 92.5171 3.51209 90.3299 2.52558C87.3228 1.17209 86.4648 1.33674 84.7306 3.60279C82.7451 6.19814 82.6816 6.18419 82.6379 3.13953C82.5998 0.489767 81.8223 0 77.6538 0C73.4854 0 72.7079 0.489767 72.6726 3.13953ZM81.1816 2.7907C81.1816 3.55814 79.9116 4.18605 78.3594 4.18605C76.8072 4.18605 75.5372 3.55814 75.5372 2.7907C75.5372 2.02326 76.8072 1.39535 78.3594 1.39535C79.9116 1.39535 81.1816 2.02326 81.1816 2.7907ZM67.8509 5.90232C66.5301 6.63349 65.0371 6.82744 64.5361 6.3307C63.2944 5.10279 67.3132 2.77395 68.9487 3.77302C69.667 4.21256 69.1731 5.17116 67.8509 5.90232ZM92.4705 5.84651C92.4705 7.69953 87.8915 6.65163 87.2155 4.64512C86.8656 3.60558 87.7207 3.28326 89.5679 3.76046C91.1638 4.17349 92.4705 5.11256 92.4705 5.84651ZM22.6205 16.8935C10.9788 23.0595 0.818842 28.7777 0.0427308 29.6009C-0.73338 30.4242 9.1571 25.6926 22.0222 19.0842C42.6357 8.49628 45.7345 7.28512 48.1278 8.88139C54.2802 12.9823 89.6469 30.7367 89.6243 29.7126C89.6031 28.7791 45.7416 5.48372 44.2825 5.63163C44.0101 5.65953 34.2622 10.7274 22.6205 16.8935ZM69.1872 10.4149C64.1834 12.6809 66.5611 13.2112 72.207 11.0888C86.5848 5.68325 103.752 22.1526 99.6079 37.3744C98.0599 43.0563 91.1314 50.6163 85.415 52.8586C83.4747 53.6191 82.8397 54.2791 84.0038 54.3251C87.5979 54.466 95.1756 49.0939 98.1234 44.3149C105.808 31.8586 101.159 17.0874 87.6431 11.0177C80.8458 7.96605 75.0165 7.77488 69.1872 10.4149ZM100.673 12.4716C101.026 13.5181 100.497 14.0414 99.4386 13.6926C98.4198 13.3563 97.3078 12.2567 96.9691 11.2507C96.6164 10.2042 97.1455 9.68093 98.2039 10.0298C99.2213 10.3647 100.333 11.4642 100.673 12.4716ZM107.012 21.0098C107.495 22.8363 107.169 23.6819 106.117 23.3358C104.088 22.6674 103.028 18.1395 104.902 18.1395C105.645 18.1395 106.594 19.4316 107.012 21.0098ZM109.404 32.093C109.404 33.6279 108.769 34.8837 107.993 34.8837C107.217 34.8837 106.582 33.6279 106.582 32.093C106.582 30.5581 107.217 29.3023 107.993 29.3023C108.769 29.3023 109.404 30.5581 109.404 32.093ZM10.9534 68.0233L10.6261 103.256H44.4927H78.3594L78.032 68.0233L77.706 32.7907L77.3025 67.3256L76.8989 101.86H44.4927H12.0866L11.683 67.3256L11.2794 32.7907L10.9534 68.0233ZM24.2673 40.0005C23.7494 40.5112 23.3261 49.6158 23.3261 60.233V79.5349H44.4927H65.6594V59.3023V39.0698H45.4339C34.3087 39.0698 24.7837 39.4884 24.2673 40.0005ZM63.9364 59.6512L64.3301 78.1395H45.2392H26.1483V59.2619V40.3842L44.8455 40.7735L63.5427 41.1628L63.9364 59.6512ZM106.991 43.2558C106.584 44.7907 105.691 46.0465 105.005 46.0465C103.548 46.0465 103.332 42.7493 104.701 41.3958C106.551 39.5665 107.716 40.5126 106.991 43.2558ZM44.7651 49.8837L44.4927 58.6046L36.3788 58.8321L28.265 59.0595L36.0261 59.8786L43.7872 60.6977L44.624 67.6744L45.4608 74.6512L45.6823 67.3981L45.9038 60.1465L53.3122 59.633L60.7205 59.1209L53.3799 58.8628L46.0379 58.6046L45.537 49.8837L45.036 41.1628L44.7651 49.8837ZM100.937 51.5456C100.937 53.1921 98.1855 54.953 97.1737 53.954C96.1634 52.9535 97.9442 50.2326 99.6093 50.2326C100.34 50.2326 100.937 50.8228 100.937 51.5456ZM92.4705 58.4414C92.4705 59.1195 91.2005 60.0028 89.6483 60.4047C86.874 61.1219 85.9173 59.9693 87.7673 58.14C89.1361 56.7865 92.4705 57 92.4705 58.4414Z" fill="black"/>
</svg>
