<svg width="114" height="105" viewBox="0 0 114 105" fill="none" xmlns="http://www.w3.org/2000/svg">
<path fill-rule="evenodd" clip-rule="evenodd" d="M5.50627 5.23256C4.72169 8.11116 3.11584 13.6047 1.93898 17.4419C-0.8395 26.4977 -0.838089 26.5116 3.29506 26.5116H6.82283V65.5814V104.651H56.9173H107.012V65.5814V26.5116H110.54C114.673 26.5116 114.674 26.4977 111.896 17.4419C110.719 13.6047 109.113 8.11116 108.328 5.23256L106.903 0H56.9173H6.93149L5.50627 5.23256ZM107.644 9.02512C108.877 13.2209 110.26 18.5009 110.717 20.76L111.547 24.8665L91.0803 25.034L70.6121 25.2028L63.8458 16.0898C60.1233 11.0777 57.0062 6.97674 56.9173 6.97674C56.8284 6.97674 53.7112 11.0777 49.9887 16.0898L43.2224 25.2028L22.7543 25.034L2.28752 24.8665L3.11726 20.76C3.57446 18.5009 4.95734 13.2209 6.19066 9.02512L8.43432 1.39535H56.9173H105.4L107.644 9.02512ZM65.3501 21.2791L67.6601 25.1163H56.9145C45.0682 25.1163 45.3292 25.673 52.4836 15.6586L56.748 9.68791L59.8947 13.5656C61.6248 15.6977 64.0801 19.1693 65.3501 21.2791ZM105.601 64.8837V103.256H91.553H77.5068L76.5388 98.1586C76.0068 95.354 75.9179 85.6214 76.3426 76.5307L77.1117 60H56.9173H36.7229L37.4919 76.5307C37.9167 85.6214 37.8278 95.354 37.2958 98.1586L36.3278 103.256H22.2816H8.23394V64.8837V26.5116H56.9173H105.601V64.8837ZM22.5906 33.9265C19.9899 36.6642 19.5228 38.7907 19.5228 47.88V58.6046H26.5784H33.6339V47.6847C33.6339 38.0749 33.2417 36.4019 30.3686 33.7312C26.3314 29.9819 26.3399 29.9819 22.5906 33.9265ZM52.1802 34.913C49.5202 38.4698 49.0941 40.5935 49.4455 48.5177L49.8617 57.907H56.9173H63.9728L64.3891 48.5177C64.7405 40.5935 64.3143 38.4698 61.6544 34.913C59.9215 32.594 57.7893 30.6977 56.9173 30.6977C56.0452 30.6977 53.913 32.594 52.1802 34.913ZM83.2684 33.9265C80.6677 36.6642 80.2006 38.7907 80.2006 47.88V58.6046H87.2562H94.3117V47.6847C94.3117 38.0749 93.9194 36.4019 91.0464 33.7312C87.0092 29.9819 87.0177 29.9819 83.2684 33.9265ZM31.9279 47.3902L31.5173 56.5116L26.2256 56.9442L20.9339 57.3781V48.1367C20.9339 41.5186 21.6353 37.9646 23.4034 35.6121L25.8728 32.3274L29.1057 35.2981C31.942 37.9033 32.2878 39.3865 31.9279 47.3902ZM61.8562 46.9605V57.2093H56.9173H51.9784V47.2033C51.9784 39.8316 52.5965 36.5219 54.3237 34.6339C56.5165 32.2381 56.8397 32.2228 59.2626 34.3912C61.3312 36.2414 61.8562 38.7851 61.8562 46.9605ZM92.9006 48.0949V57.3781L87.609 56.9442L82.3173 56.5116L81.8925 47.6079C81.5299 40.0256 81.9264 38.2214 84.5553 35.453L87.6428 32.2033L90.2717 35.5074C92.2374 37.9786 92.9006 41.153 92.9006 48.0949ZM75.9673 64.186C75.9673 66.8386 75.0261 66.9767 56.9173 66.9767C38.8085 66.9767 37.8673 66.8386 37.8673 64.186C37.8673 61.5335 38.8085 61.3953 56.9173 61.3953C75.0261 61.3953 75.9673 61.5335 75.9673 64.186ZM73.1451 83.7209V99.0698H69.6173C66.1163 99.0698 66.0895 98.9763 66.0895 86.5116V73.9535H56.9173H47.7451V86.5116C47.7451 98.9763 47.7183 99.0698 44.2173 99.0698H40.6895V83.7209V68.3721H56.9173H73.1451V83.7209ZM19.5228 82.3256V93.4884H26.5784H33.6339V82.3256V71.1628H26.5784H19.5228V82.3256ZM80.2006 82.3256V93.4884H87.2562H94.3117V82.3256V71.1628H87.2562H80.2006V82.3256ZM32.2228 82.3256V92.093H26.5784H20.9339V82.3256V72.5581H26.5784H32.2228V82.3256ZM92.9006 82.3256V92.093H87.2562H81.6117V82.3256V72.5581H87.2562H92.9006V82.3256ZM64.3821 87.5581L64.7927 99.0698H56.9737H49.1562V88.14C49.1562 82.1274 49.6091 76.7623 50.1623 76.2153C50.7155 75.6684 54.0485 75.406 57.5706 75.6335L63.9728 76.0465L64.3821 87.5581ZM75.9673 101.86C75.9673 102.721 68.6761 103.256 56.9173 103.256C45.1585 103.256 37.8673 102.721 37.8673 101.86C37.8673 101 45.1585 100.465 56.9173 100.465C68.6761 100.465 75.9673 101 75.9673 101.86Z" fill="black"/>
</svg>
