<svg width="138" height="81" viewBox="0 0 138 81" fill="none" xmlns="http://www.w3.org/2000/svg">
<path fill-rule="evenodd" clip-rule="evenodd" d="M0.254151 0.210793C0.234537 0.328192 0.194174 0.584025 0.164327 0.779311C0.0170803 1.74124 0.575648 2.05393 2.99754 2.36662C6.11472 2.76913 7.46126 3.4954 8.32 5.23763C8.94423 6.50457 8.963 6.81783 9.10171 18.3323L9.24384 30.1291L14.4142 30.2064L19.5846 30.284L19.6909 18.6939C19.8089 5.87494 19.853 5.52417 21.5727 3.80468C22.9841 2.39334 24.9247 1.99679 29.2841 2.22875C32.3527 2.3922 35.0514 2.98402 36.7553 3.86778C39.4296 5.2544 41.6784 8.29996 42.6557 11.8583C43.6014 15.3013 43.6219 21.9919 42.6974 25.4061C42.3424 26.7171 41.8162 28.2774 41.5283 28.8738C41.2401 29.4699 41.0749 30.0284 41.161 30.1146C41.2472 30.2007 43.065 30.2712 45.2003 30.2712C49.6513 30.2712 49.3394 30.4267 51.4293 27.1665C53.2724 24.2912 54.0934 21.3804 54.121 17.6217C54.1485 13.8825 53.501 11.4223 51.7986 8.79769C48.753 4.10259 43.9158 1.41889 36.3906 0.249734C34.6529 -0.0203118 0.298779 -0.0572636 0.254151 0.210793ZM68.8797 0.332172C68.8089 0.516372 68.7933 0.962086 68.8447 1.32281C68.9292 1.91435 69.1668 2.01129 71.2558 2.3072C74.3744 2.74923 75.4674 3.14719 76.3088 4.14721C77.6212 5.70694 77.6954 6.42043 77.8196 18.6939L77.937 30.284L83.1023 30.2064L88.2679 30.1291L88.2909 19.3272C88.3204 5.53127 88.572 4.23221 91.4735 2.89193C92.6742 2.33734 93.2666 2.27423 97.0799 2.29583C101.74 2.32255 103.597 2.67162 106.796 4.12191C110.613 5.85277 113.428 9.81733 114.438 14.8862C115.085 18.135 114.884 25.2782 114.067 28.0611C113.758 29.1123 113.572 30.0398 113.654 30.122C113.737 30.2041 115.891 30.2712 118.443 30.2712H123.081L123.899 28.6367C125.675 25.0835 126.076 23.3486 126.053 19.3272C126.035 16.2615 125.921 15.3169 125.388 13.7842C122.805 6.36074 116.062 1.78132 105.466 0.254566C102.796 -0.130036 69.0298 -0.0584001 68.8797 0.332172ZM8.51074 37.1645C8.44025 38.2776 8.59488 44.5984 8.6992 44.8707C8.7842 45.0919 9.50764 45.1493 10.9787 45.0512C12.8022 44.9299 13.2172 44.8048 13.676 44.2383C14.3929 43.3528 14.3676 42.087 13.6189 41.3894C13.0575 40.8664 13.0484 40.7896 13.4767 40.1782C14.1695 39.189 14.0532 38.0812 13.1851 37.3984C12.5927 36.9322 12.0284 36.8091 10.4846 36.8091C9.12503 36.8091 8.52638 36.9169 8.51074 37.1645ZM18.6065 37.1795C18.5283 37.3831 18.5005 39.206 18.5445 41.2302L18.6244 44.9105L21.3959 44.9918C23.1711 45.0441 24.1674 44.9674 24.1674 44.7786C24.1674 44.6044 23.3786 44.4841 22.2345 44.4841C20.0028 44.4841 19.6193 44.228 19.6193 42.7385C19.6193 41.4773 19.9107 41.2501 21.6091 41.1887C23.4929 41.1208 23.5989 41.0995 23.5989 40.7888C23.5989 40.6285 22.7953 40.5045 21.7566 40.5045C20.0494 40.5045 19.9019 40.4545 19.7432 39.8229C19.6491 39.4479 19.6148 38.8402 19.6668 38.4726C19.7535 37.8609 19.9283 37.7921 21.7291 37.6619C22.9417 37.5744 23.7413 37.3834 23.8135 37.1645C23.9847 36.6446 18.806 36.6593 18.6065 37.1795ZM28.0524 36.9987C27.6013 37.4496 27.9472 37.6619 29.1335 37.6619H30.4041L30.4837 41.2862C30.5584 44.6945 30.5971 44.9105 31.1318 44.9105C31.6693 44.9105 31.7012 44.7164 31.714 41.3573L31.7273 37.8041L32.4246 37.7245C33.7578 37.5724 34.4008 37.3652 34.4008 37.088C34.4008 36.7762 28.36 36.6912 28.0524 36.9987ZM38.2934 36.9908C37.9165 37.3677 38.452 37.6619 39.5152 37.6619C40.893 37.6619 41.0007 37.949 40.9348 41.4397C40.866 45.0774 40.8623 45.0527 41.5073 45.0527C42.0465 45.0527 42.0758 44.8631 42.0758 41.3735V37.6946L43.2617 37.6071C43.9141 37.559 44.5005 37.36 44.5647 37.1645C44.6534 36.8947 43.9337 36.8091 41.5783 36.8091C39.8716 36.8091 38.3935 36.891 38.2934 36.9908ZM48.8136 36.9885C48.4392 37.3626 48.5822 44.6763 48.9691 44.9523C49.4278 45.2795 54.0147 45.0927 54.0147 44.7468C54.0147 44.6024 53.2088 44.4841 52.2238 44.4841C50.1439 44.4841 49.7508 44.2067 49.7508 42.7385C49.7508 41.5222 49.9645 41.3192 51.2468 41.3184C52.5754 41.3175 53.7304 41.0668 53.7304 40.7791C53.7304 40.6424 52.8668 40.4926 51.8116 40.4465L49.8929 40.3624V39.0832V37.8041L51.8159 37.6619C52.8736 37.5838 53.7378 37.3919 53.7364 37.2355C53.7335 36.9118 49.1217 36.6801 48.8136 36.9885ZM58.7524 36.9987C58.6481 37.1028 58.5628 38.9576 58.5628 41.1205C58.5628 44.8631 58.5901 45.0527 59.1313 45.0527C59.631 45.0527 59.6998 44.8631 59.6998 43.4892C59.6998 41.9727 59.7234 41.9258 60.4815 41.9272C61.118 41.9284 61.4483 42.2189 62.2582 43.4892C62.8415 44.4043 63.4589 45.0504 63.7505 45.0512C64.348 45.0529 64.4052 44.4 63.8477 43.9372C63.6277 43.7547 63.2417 43.1714 62.9901 42.6413C62.5453 41.7038 62.5524 41.6575 63.2482 40.9616C64.439 39.7708 64.1448 37.9453 62.6323 37.1397C61.9699 36.7873 59.0693 36.6815 58.7524 36.9987ZM74.037 37.1795C73.9588 37.3831 73.931 39.2043 73.975 41.2268C74.0452 44.4651 74.1143 44.9148 74.5524 44.9989C74.9773 45.0805 75.0498 44.8668 75.0498 43.5339C75.0498 41.1225 76.0197 41.156 77.6025 43.6226C78.1747 44.5143 78.723 45.0527 79.059 45.0527C79.7805 45.0527 79.7427 44.8477 78.7452 43.3471C78.2776 42.6436 77.8944 41.9778 77.8935 41.8675C77.893 41.7575 78.2122 41.3476 78.6031 40.9568C79.8612 39.6986 79.4416 37.7364 77.7796 37.1045C76.6573 36.6778 74.2107 36.727 74.037 37.1795ZM83.9676 37.1645C83.8314 37.36 83.7589 39.2146 83.8067 41.2862L83.8934 45.0527H86.4193C89.5064 45.0527 90.148 44.5444 87.211 44.4256L85.141 44.342V42.7885V41.2351L86.8224 41.2251C87.9071 41.2186 88.5462 41.089 88.6226 40.8598C88.7099 40.5995 88.2411 40.5045 86.8702 40.5045H84.9989V39.0963V37.6878L86.8949 37.6039C88.0953 37.5505 88.8341 37.3893 88.9086 37.1645C88.9961 36.899 88.418 36.8091 86.6209 36.8091C85.0185 36.8091 84.133 36.9277 83.9676 37.1645ZM95.9045 37.2856C95.8061 37.5707 95.1671 39.2236 94.484 40.9585C93.8013 42.6936 93.2424 44.3352 93.2424 44.6067C93.2424 45.3935 93.9084 44.9628 94.4528 43.8241C94.9463 42.7914 94.9733 42.7786 96.6581 42.7786H98.3636L98.8187 43.9156C99.1249 44.6811 99.4492 45.0527 99.8113 45.0527C100.107 45.0527 100.349 44.9677 100.349 44.8636C100.349 44.5185 98.5995 40.1029 97.8337 38.5147C97.0543 36.8978 96.2211 36.3671 95.9045 37.2856ZM104.58 37.1437C104.562 37.3507 104.56 38.8629 104.576 40.5045C104.591 42.1461 104.606 43.8411 104.608 44.271L104.613 45.0527H107.171C108.687 45.0527 109.729 44.937 109.729 44.7684C109.729 44.6061 108.879 44.4841 107.748 44.4841H105.766L105.687 40.7211C105.617 37.4004 105.549 36.947 105.11 36.8629C104.837 36.8103 104.598 36.9368 104.58 37.1437ZM112.572 37.2355C112.572 37.5511 112.903 37.6619 113.843 37.6619H115.113L115.193 41.2862C115.27 44.8005 115.292 44.9134 115.912 45.0015C116.547 45.0916 116.552 45.0672 116.552 41.3772V37.6619H117.658C118.38 37.6619 118.822 37.5135 118.929 37.2355C119.068 36.8717 118.613 36.8091 115.832 36.8091C113.124 36.8091 112.572 36.8814 112.572 37.2355ZM122.805 37.0968C122.805 37.2551 123.413 38.2981 124.156 39.4149C125.27 41.0904 125.512 41.6865 125.541 42.8226C125.597 44.9913 125.616 45.0527 126.216 45.0527C126.723 45.0527 126.785 44.8631 126.785 43.3121C126.785 41.7496 126.917 41.3547 128.069 39.4559C129.235 37.5366 129.435 36.8091 128.798 36.8091C128.674 36.8091 128.098 37.5766 127.519 38.5147C126.94 39.4528 126.378 40.2168 126.27 40.2123C126.162 40.208 125.564 39.4405 124.939 38.5067C124.271 37.5084 123.598 36.8091 123.304 36.8091C123.03 36.8091 122.805 36.9385 122.805 37.0968ZM12.193 37.9183C12.7638 38.2796 12.674 39.6836 12.0509 40.1395C11.7578 40.3541 11.1342 40.492 10.6651 40.446C9.86325 40.3675 9.80725 40.2817 9.72567 39.0122L9.63896 37.6619L10.7206 37.6662C11.3155 37.6688 11.9781 37.7822 12.193 37.9183ZM62.3776 38.2054C63.52 39.4678 62.1803 41.4005 60.4619 40.9693C59.7672 40.795 59.6998 40.6566 59.6998 39.4096C59.6998 38.6568 59.7851 37.9556 59.8894 37.8515C60.2914 37.4493 61.9006 37.6784 62.3776 38.2054ZM77.7909 38.3945C78.4666 39.426 78.0402 40.5423 76.839 40.8868C75.3653 41.3093 75.0498 41.0179 75.0498 39.2342V37.6619H76.1803C77.0814 37.6619 77.408 37.8106 77.7909 38.3945ZM97.4253 40.5045C97.9281 41.9068 97.9176 41.9258 96.6535 41.9258C95.3235 41.9258 95.2052 41.5114 96.0068 39.6611C96.548 38.4112 96.7092 38.507 97.4253 40.5045ZM12.7161 41.8192C13.6277 43.066 12.8269 44.2752 11.0637 44.3142L9.81236 44.342L9.72339 43.1015C9.5878 41.2106 9.76347 40.9727 11.1578 41.1594C11.8155 41.2478 12.5145 41.5438 12.7161 41.8192ZM9.27682 52.6023C9.18045 52.8533 9.10171 57.0072 9.10171 61.8333C9.10171 71.5436 8.93258 73.0039 7.63636 74.4803C6.76368 75.4741 4.58938 76.3212 2.91083 76.3212C1.37697 76.3212 0.310717 76.66 0.13874 77.2021C-0.306694 78.6055 -0.806705 78.564 18.0607 78.6902C28.1044 78.7575 36.78 78.6925 38.2383 78.5389C47.6313 77.55 55.0801 72.7819 58.272 65.7146C59.5674 62.8464 60.0719 59.9751 59.9304 56.2758C59.8511 54.2038 59.6743 52.8974 59.4343 52.6083C59.1197 52.2291 58.2552 52.1591 53.8754 52.1591H48.6891L48.6717 56.352C48.6461 62.6264 47.4929 66.6876 44.8305 69.8821C41.4032 73.9942 35.9292 76.0625 28.2892 76.1321C24.8053 76.164 24.1504 76.0949 23.0304 75.5756C21.5304 74.88 20.9593 74.2947 20.2808 72.7574C19.8504 71.7827 19.7629 70.3295 19.6304 61.9661L19.4772 52.3013L14.4645 52.2237C10.0801 52.156 9.42975 52.2035 9.27682 52.6023ZM78.082 52.3487C77.9777 52.4528 77.8899 56.2584 77.8867 60.8054C77.8808 69.5981 77.6818 72.0286 76.8307 73.7082C76.1169 75.1176 74.3383 75.9849 71.5122 76.3018C70.2993 76.438 69.1822 76.6742 69.0295 76.8269C68.8766 76.9798 68.7936 77.4508 68.845 77.8738L68.9383 78.643L83.0091 78.6427H97.0799L97.1657 77.6626C97.2448 76.7635 97.1768 76.6674 96.3485 76.5017C95.8519 76.4025 95.0341 76.3212 94.5312 76.3212C93.0585 76.3212 90.9558 75.5628 90.0667 74.7108C88.5402 73.2486 88.3577 71.8825 88.3514 61.8845C88.3486 56.9384 88.2829 52.7271 88.2056 52.5255C88.0982 52.2461 86.902 52.1591 83.1683 52.1591C80.4749 52.1591 78.1861 52.2444 78.082 52.3487ZM110.406 52.5719C110.319 52.799 110.324 53.1074 110.416 53.2578C110.509 53.4079 111.462 57.4753 112.534 62.2964C114.755 72.2852 115.555 74.5554 117.702 76.9642C120.152 79.7129 123.996 80.9483 128.083 80.3002C131.112 79.8198 132.847 78.8835 135.203 76.4582C137.519 74.0732 137.924 73.2912 137.141 72.7185C136.307 72.109 135.988 72.2531 134.257 74.0224C130.584 77.7763 127.08 76.7046 125.444 71.3264C125.115 70.2431 123.93 65.5617 122.811 60.9231C121.394 55.0455 120.647 52.4394 120.347 52.3243C120.11 52.2336 117.812 52.1591 115.24 52.1591C111.415 52.1591 110.536 52.2342 110.406 52.5719Z" fill="white"/>
</svg>
