<svg width="112" height="94" viewBox="0 0 112 94" fill="none" xmlns="http://www.w3.org/2000/svg">
<path fill-rule="evenodd" clip-rule="evenodd" d="M77.0203 0.210958C70.4449 0.80564 64.5929 2.85843 60.4222 6.03333C56.0913 9.33012 53.4606 14.6605 53.0553 20.9604C52.9713 22.2644 53.0133 23.5399 53.1571 24.0554C53.3911 24.8944 53.3362 25.0449 51.9024 27.5119C51.0777 28.9306 50.4032 30.1246 50.4032 30.1652C50.4032 30.2059 49.7174 31.419 48.8795 32.8608L47.3558 35.4826L49.2416 41.2027C51.1106 46.8721 51.1249 46.934 50.8624 48.1981C50.4263 50.2992 48.4814 51.995 46.4923 52.0085L45.7335 52.0137V56.8883C45.7335 60.5097 45.6586 61.8218 45.4417 61.9925C45.2813 62.1191 44.2042 62.5414 43.0485 62.9316C41.8927 63.3215 37.3748 64.9185 33.0087 66.4803C26.1286 68.9412 13.4213 73.4596 4.64045 76.5672C3.05906 77.1269 1.74922 77.7403 1.4541 78.0592C1.17836 78.3574 0.718393 79.3048 0.432143 80.1652C-0.906417 84.1874 0.870391 87.52 5.68272 90.0133C12.354 93.4698 13.2497 93.8072 15.7561 93.8072C16.4568 93.8072 17.3879 93.6578 17.8252 93.4749C18.9184 93.0182 19.9712 91.495 20.1645 90.0908L20.3207 88.9547L22.462 87.9645C23.6397 87.4198 27.7553 85.4781 31.6078 83.6495C45.4729 77.0683 48.0198 75.8624 52.5045 73.7556C55.0086 72.5794 58.1607 71.0673 59.509 70.3958L61.9606 69.1747L62.0239 64.3969L62.0874 59.6194L63.3148 58.4431C65.0031 56.8258 65.8813 55.4377 66.5859 53.2724C67.9007 49.2327 68.0045 48.1831 68.0389 38.5884C68.0578 33.257 68.1813 28.8773 68.3482 27.6147C68.7501 24.5749 69.6833 21.3977 70.9201 18.8602C71.8138 17.0262 72.3431 16.298 73.985 14.6437C76.862 11.7455 79.6696 10.2874 85.8296 8.49331C90.6361 7.09358 93.1264 6.67448 96.8664 6.63619C100.733 6.59673 102.127 6.90002 104.398 8.27501C107.163 9.94885 108.13 12.1763 109.248 19.4427C109.83 23.2273 109.975 31.8855 109.51 35.0448C109.095 37.8655 108.319 40.782 107.574 42.3241C105.87 45.8513 105.161 46.4853 100.252 48.8663C98.0688 49.9252 92.7629 52.4993 88.461 54.5867C84.159 56.6738 76.6539 60.3126 71.783 62.6724C66.9118 65.0325 62.8857 67.0042 62.8359 67.0542C62.6837 67.2064 63.7178 69.0813 63.8957 68.9758C63.9872 68.9216 65.7956 68.0386 67.9144 67.0138C70.0333 65.9888 76.1797 62.9953 81.5732 60.3616C96.0693 53.2827 99.988 51.3781 102.682 50.1031C104.676 49.1593 105.388 48.6723 106.651 47.3895C108.539 45.4722 109.752 43.2482 110.66 40.0367C111.793 36.0308 112.108 32.8206 111.969 26.6807C111.854 21.5646 111.696 20.0297 110.764 15.0066C109.974 10.7532 107.729 7.42419 104.628 5.90912C103.855 5.53111 103.268 5.10127 103.325 4.95371C103.464 4.59064 102.723 4.13721 100.368 3.14514C94.5021 0.673489 85.0465 -0.514941 77.0203 0.210958ZM84.3472 2.23689C84.4114 2.34056 83.3407 2.61397 81.9678 2.84465C77.2967 3.62939 71.801 5.32868 68.5002 7.00883C66.7484 7.9005 64.2985 9.68875 63.1654 10.9024C61.1467 13.0647 59.2882 17.6757 58.789 21.7594L58.4824 24.2684L57.4196 24.1152C55.1441 23.7874 55.3063 23.995 55.3063 21.411C55.3063 12.8896 59.913 7.11273 69.165 4.03191C72.455 2.93618 75.3114 2.47388 79.9388 2.28756C82.1219 2.19954 83.9807 2.10988 84.0694 2.08793C84.1581 2.06622 84.2832 2.13299 84.3472 2.23689ZM96.0492 4.00553C96.9644 4.28664 96.9273 4.29808 94.2037 4.57943C91.4143 4.86755 85.623 6.13046 83.4411 6.92664C82.799 7.16106 81.8534 7.4863 81.3397 7.64974C78.3152 8.61122 74.7891 10.7798 72.4456 13.1196C69.4316 16.1289 67.7767 19.6384 66.546 25.6301C66.4271 26.2079 66.3188 26.4526 66.305 26.1738C66.2782 25.6315 66.2203 25.6107 63.4782 25.1654C60.5637 24.6922 60.8282 24.959 60.9755 22.6408C61.1359 20.1149 61.7925 17.5784 62.8768 15.293C65.3015 10.1837 72.2413 6.64926 83.3243 4.87852C90.8014 3.68402 94.2362 3.44844 96.0492 4.00553ZM90.7958 14.6297C90.7958 15.7911 90.8142 15.8238 91.4717 15.8238C91.8434 15.8238 92.8152 16.0353 93.6314 16.2938C98.6247 17.8749 101.579 23.0905 101.63 30.4165C101.668 35.8452 100.289 39.3516 96.8701 42.5167C93.8129 45.3473 90.0559 46.3692 86.6136 45.3069C85.6008 44.9945 84.9926 44.5898 83.894 43.4974C83.1158 42.7236 82.2505 41.6139 81.9708 41.0311C80.096 37.1219 79.7749 30.3901 81.262 26.1591C82.7691 21.8705 85.0801 18.7136 87.892 17.1018C88.5259 16.7383 89.0699 16.4259 89.1005 16.4072C89.2434 16.3211 88.3655 14.4229 88.1827 14.4229C87.6183 14.4229 86.0605 15.4703 84.5644 16.8553C82.0647 19.1698 79.9573 22.7267 78.7429 26.6807C78.187 28.4909 78.1137 35.972 78.6318 38.0047C79.5286 41.5223 81.11 44.3022 83.0738 45.8133C84.6451 47.0223 85.4976 47.4033 87.527 47.8035C91.3674 48.5607 96.4823 46.3867 99.8426 42.5693C101.296 40.9183 103.05 37.2613 103.492 34.9596C104.448 29.9838 103.551 23.9345 101.253 19.8586C99.4709 16.6986 95.673 14.1672 91.8553 13.5947L90.7958 13.4359V14.6297ZM86.8485 20.2791C86.6881 20.8138 86.644 21.3326 86.7502 21.432C86.8565 21.5315 87.7839 21.9485 88.8112 22.3587C91.6032 23.4738 99.0095 26.3305 99.1085 26.3305C99.3177 26.3305 99.8942 24.5976 99.7319 24.4568C99.5979 24.3405 89.8173 20.3342 87.4483 19.425C87.2457 19.3473 87.0397 19.6403 86.8485 20.2791ZM58.2249 26.44C59.3806 26.6443 60.881 26.9217 61.5588 27.0559L62.7916 27.3004L62.0479 28.6249C58.0203 35.7997 57.0845 37.307 56.7299 37.1917C51.7567 35.5727 50.2951 35.0128 50.3539 34.7499C50.3908 34.5839 51.5465 32.518 52.9222 30.1587C54.6918 27.1232 55.5256 25.8983 55.7733 25.9688C55.9659 26.0237 57.0691 26.2357 58.2249 26.44ZM83.0199 27.4396C82.8249 27.9212 82.7348 28.3875 82.8198 28.476C82.9045 28.5642 84.3925 29.1816 86.1261 29.8472C87.8597 30.5131 91.4171 31.8855 94.0312 32.897C96.6452 33.9084 98.8766 34.7359 98.9894 34.7359C99.1743 34.7359 99.9016 33.2659 99.9016 32.8923C99.9016 32.8087 99.0873 32.4405 98.0921 32.074C97.097 31.7076 93.4671 30.3182 90.0258 28.9859C86.5847 27.6539 83.6802 26.564 83.5716 26.564C83.463 26.564 83.2148 26.9581 83.0199 27.4396ZM66.2142 28.3702C66.1605 28.7251 66.1152 28.4902 66.1133 27.8481C66.1117 27.2061 66.1556 26.9156 66.2109 27.2028C66.2663 27.49 66.2677 28.0153 66.2142 28.3702ZM65.8266 46.1766C65.697 47.6534 65.5324 49.1768 65.4605 49.5621C65.2469 50.7083 64.3853 53.222 63.8159 54.3597C63.1946 55.6018 61.2116 57.617 60.6106 57.617C60.2555 57.6173 57.6886 56.7319 55.7959 55.9567L55.2346 55.7268L55.7959 55.352C57.0066 54.5437 57.7276 53.7069 58.3708 52.3639C58.7397 51.5934 59.0418 50.7442 59.0418 50.4767C59.0421 50.2091 59.0972 49.935 59.1644 49.8677C59.2319 49.8003 59.951 49.9042 60.7628 50.0984C62.199 50.4421 62.2522 50.4379 62.7416 49.9485C63.0183 49.6718 63.4549 49.4454 63.7117 49.4454C63.9686 49.4454 64.1787 49.3664 64.1789 49.2702C64.1789 49.174 64.5457 44.9975 64.9935 39.9893C65.4416 34.9811 65.8339 30.5682 65.8654 30.183C65.8969 29.7977 65.9539 32.6346 65.9924 36.487C66.0307 40.3395 65.9562 44.6998 65.8266 46.1766ZM63.5926 31.1753C63.5338 31.5283 63.2109 34.9169 62.8756 38.7051C62.5401 42.4934 62.2443 45.6158 62.2181 45.6435C62.1334 45.7337 59.0421 38.7656 59.0421 38.4845C59.0421 38.3346 59.605 37.2461 60.2928 36.0654C60.9807 34.8846 61.9527 33.1578 62.4526 32.2276C63.4112 30.4438 63.7703 30.1122 63.5926 31.1753ZM82.9949 35.4522C82.7801 35.9892 82.6351 36.4548 82.6724 36.487C82.71 36.5193 84.054 37.0427 85.6592 37.6502C87.2644 38.258 89.891 39.2807 91.4962 39.9232C93.1014 40.5658 94.5341 41.139 94.6798 41.1971C94.8285 41.2564 95.1022 40.8406 95.3039 40.2487L95.663 39.1945L93.4045 38.3341C91.542 37.6246 89.5263 36.8485 83.6468 34.5769C83.5032 34.5213 83.2099 34.9152 82.9949 35.4522ZM53.9724 38.5482L56.9578 39.5223L58.8209 43.5849C59.8457 45.8194 60.64 47.6917 60.5863 47.7456C60.5324 47.7995 58.8182 47.407 56.7768 46.8738L53.0651 45.9039L51.7343 41.8887C51.0021 39.6804 50.4032 37.798 50.4032 37.7058C50.4032 37.4254 50.8657 37.5344 53.9724 38.5482ZM55.1896 48.7054C56.6435 49.0762 56.8319 49.1888 56.8954 49.7255C57.1128 51.5619 54.3708 54.3462 52.3411 54.3497C51.653 54.3508 49.4671 53.6478 49.472 53.4267C49.4737 53.356 49.8335 53.0658 50.2715 52.7821C51.2381 52.1561 52.3742 50.5563 52.7835 49.2448C52.9493 48.7129 53.191 48.2803 53.3201 48.2833C53.4494 48.2861 54.2907 48.4762 55.1896 48.7054ZM55.5398 58.2017L59.8593 59.858L59.9237 63.4072C59.9592 65.3594 59.9426 66.9566 59.887 66.9566C59.8315 66.9566 57.4492 65.8483 54.5933 64.4938C51.7371 63.1392 49.0483 61.8837 48.6177 61.7039L47.8349 61.3768V58.3439V55.3107L49.5276 55.928C50.4587 56.2675 53.1641 57.2906 55.5398 58.2017ZM51.8734 65.5849C54.0826 66.6283 56.4035 67.7406 57.0311 68.0568L58.1721 68.6311L55.7831 69.7759L53.3941 70.9207L51.1671 69.5919L48.9404 68.2629L48.3887 68.9524C48.0854 69.3314 47.8367 69.7673 47.836 69.9207C47.8353 70.0741 48.5316 70.6167 49.3833 71.1269L50.9318 72.0543L49.7919 72.6298C49.165 72.9464 47.4615 73.7484 46.0065 74.412L43.3609 75.6186L42.1334 74.9259C41.4582 74.545 40.2368 73.8009 39.4194 73.2723L37.9328 72.3115L37.3982 73.1948C37.1042 73.6805 36.863 74.1311 36.8623 74.1962C36.8616 74.2614 37.7533 74.8392 38.8439 75.4804C39.9345 76.1215 40.8238 76.6987 40.8206 76.7629C40.8124 76.9137 31.2146 81.433 30.9066 81.4309C30.7787 81.4302 29.3605 80.6429 27.7553 79.6814C26.1501 78.72 24.7683 77.9327 24.6848 77.932C24.55 77.9306 23.5526 79.4648 23.5526 79.673C23.5526 79.7181 24.6033 80.3625 25.8874 81.1055C27.1716 81.8482 28.2223 82.5211 28.2223 82.6009C28.2223 82.6805 26.2043 83.7139 23.738 84.8972L19.2535 87.0488L13.9901 84.0441C11.0951 82.3915 7.91225 80.5818 6.91691 80.0221C5.92157 79.4627 5.10741 78.9369 5.10741 78.8537C5.10741 78.7046 6.41492 78.2292 23.9028 72.0227C28.7826 70.2907 35.9797 67.7194 39.8964 66.3085C43.8131 64.8975 47.2066 63.7308 47.4372 63.7154C47.6679 63.7002 49.6642 64.5415 51.8734 65.5849ZM8.69395 83.6259C11.9223 85.4742 14.9838 87.2183 15.4974 87.5013C18.0134 88.8884 18.0127 88.8875 17.8729 89.929C17.6298 91.7416 16.1437 92.1569 13.2595 91.2186C11.7509 90.7275 6.19218 87.9372 4.60052 86.8716C2.82978 85.6862 1.89935 83.4284 2.3383 81.3817C2.46999 80.7676 2.63342 80.2652 2.70113 80.2652C2.76908 80.2652 5.46581 81.7774 8.69395 83.6259Z" fill="black"/>
</svg>
